<?xml version="1.0" encoding="UTF-8"?><svg xmlns="http://www.w3.org/2000/svg" xmlns:xlink="http://www.w3.org/1999/xlink" width="20px" height="12px" viewBox="0 0 20 12" version="1.1"><title>Lager_16</title><g id="Page-1" stroke="none" stroke-width="1" fill="none" fill-rule="evenodd"><g id="Asset-1" transform="translate(-9.000000, -11.000000)" fill-rule="nonzero" fill="#ff4d5a"><g id="Lager_16" transform="translate(9.000000, 11.000000)"><path d="M9.319 6.091c.223.14.472.235.732.278.253-.004.496-.103.679-.278L16.462.574a2.116 2.116 0 0 1 2.887-.01l.03.028a1.959 1.959 0 0 1 .008 2.854l-8.613 8.267a1.08 1.08 0 0 1-.723.287 2.124 2.124 0 0 1-.775-.287L.611 3.446A1.959 1.959 0 0 1 .623.592L.659.564a2.133 2.133 0 0 1 2.9.01l5.76 5.517z" id="Shape"/></g></g></g><metadata><rdf:RDF xmlns:rdf="http://www.w3.org/1999/02/22-rdf-syntax-ns#" xmlns:rdfs="http://www.w3.org/2000/01/rdf-schema#" xmlns:dc="http://purl.org/dc/elements/1.1/"><rdf:Description about="https://iconscout.com/legal#licenses" dc:title="down,arrow" dc:description="down,arrow" dc:publisher="Iconscout" dc:date="2017-09-14" dc:format="image/svg+xml" dc:language="en"><dc:creator><rdf:Bag><rdf:li>Victor Erixon</rdf:li></rdf:Bag></dc:creator></rdf:Description></rdf:RDF></metadata></svg>