<?xml version="1.0" encoding="UTF-8"?><svg xmlns="http://www.w3.org/2000/svg" xmlns:xlink="http://www.w3.org/1999/xlink" width="28px" height="32px" viewBox="0 0 14 16" version="1.1"><title>quote</title><g id="Octicons" stroke="none" stroke-width="1" fill="none" fill-rule="evenodd"><g id="quote" fill="#000"><path d="M6.16 3.5C3.73 5.06 2.55 6.67 2.55 9.36c.16-.05.3-.05.44-.05 1.27 0 2.5.86 2.5 2.41 0 1.61-1.03 2.61-2.5 2.61-1.9 0-2.99-1.52-2.99-4.25 0-3.8 1.75-6.53 5.02-8.42L6.16 3.5zm7 0c-2.43 1.56-3.61 3.17-3.61 5.86.16-.05.3-.05.44-.05 1.27 0 2.5.86 2.5 2.41 0 1.61-1.03 2.61-2.5 2.61-1.89 0-2.98-1.52-2.98-4.25 0-3.8 1.75-6.53 5.02-8.42l1.14 1.84h-.01z" id="Shape"/></g></g><metadata><rdf:RDF xmlns:rdf="http://www.w3.org/1999/02/22-rdf-syntax-ns#" xmlns:rdfs="http://www.w3.org/2000/01/rdf-schema#" xmlns:dc="http://purl.org/dc/elements/1.1/"><rdf:Description about="https://iconscout.com/legal#licenses" dc:title="quote" dc:description="quote" dc:publisher="Iconscout" dc:date="2017-09-14" dc:format="image/svg+xml" dc:language="en"><dc:creator><rdf:Bag><rdf:li>Github</rdf:li></rdf:Bag></dc:creator></rdf:Description></rdf:RDF></metadata></svg>